HIERARCHY
ROOT Hips
{
    OFFSET   0.000000   0.000000   0.000000
    CHANNELS 6 Xposition Yposition Zposition Zrotation Xrotation Yrotation
    JOINT Chest
    {
        OFFSET   0.000000   8.007240   0.000000
        CHANNELS 3 Zrotation Xrotation Yrotation
        JOINT Chest2
        {
            OFFSET   0.000000  22.077100   0.000000
            CHANNELS 3 Zrotation Xrotation Yrotation
            JOINT Neck
            {
                OFFSET   0.000000  23.254800   0.000000
                CHANNELS 3 Zrotation Xrotation Yrotation
                JOINT Head
                {
                    OFFSET   0.000000  14.370000   1.956600
                    CHANNELS 3 Zrotation Xrotation Yrotation
                    End Site
                    {
                        OFFSET   0.000000  19.566000   0.000000
                    }
                }
            }
            JOINT LeftCollar
            {
                OFFSET   3.911900  19.017000  -0.467064
                CHANNELS 3 Zrotation Xrotation Yrotation
                JOINT LeftShoulder
                {
                    OFFSET  10.383700   0.000000   0.000000
                    CHANNELS 3 Zrotation Xrotation Yrotation
                    JOINT LeftElbow
                    {
                        OFFSET  26.662100   0.001476   0.000517
                        CHANNELS 3 Zrotation Xrotation Yrotation
                        JOINT LeftWrist
                        {
                            OFFSET  28.869000  -0.000025  -0.000106
                            CHANNELS 3 Zrotation Xrotation Yrotation
                            JOINT LeftFinger0
                            {
                                OFFSET   2.044660  -2.323460   3.252850
                                CHANNELS 3 Zrotation Xrotation Yrotation
                                JOINT LeftFinger01
                                {
                                    OFFSET   3.088130   0.000000   0.000000
                                    CHANNELS 3 Zrotation Xrotation Yrotation
                                    JOINT LeftFinger02
                                    {
                                        OFFSET   2.639460   0.000000   0.000000
                                        CHANNELS 3 Zrotation Xrotation Yrotation
                                        End Site
                                        {
                                            OFFSET   2.582190   0.000000   0.000000
                                        }
                                    }
                                }
                            }
                            JOINT LeftFinger1
                            {
                                OFFSET   8.364480   0.000000   3.252850
                                CHANNELS 3 Zrotation Xrotation Yrotation
                                JOINT LeftFinger11
                                {
                                    OFFSET   4.646930   0.000000   0.000000
                                    CHANNELS 3 Zrotation Xrotation Yrotation
                                    JOINT LeftFinger12
                                    {
                                        OFFSET   2.323460   0.000000   0.000000
                                        CHANNELS 3 Zrotation Xrotation Yrotation
                                        End Site
                                        {
                                            OFFSET   2.273050   0.000000   0.000000
                                        }
                                    }
                                }
                            }
                            JOINT LeftFinger2
                            {
                                OFFSET   8.364490   0.000015   1.078090
                                CHANNELS 3 Zrotation Xrotation Yrotation
                                JOINT LeftFinger21
                                {
                                    OFFSET   5.111620   0.000000   0.000000
                                    CHANNELS 3 Zrotation Xrotation Yrotation
                                    JOINT LeftFinger22
                                    {
                                        OFFSET   2.788160   0.000016   0.000000
                                        CHANNELS 3 Zrotation Xrotation Yrotation
                                        End Site
                                        {
                                            OFFSET   2.727660   0.000000   0.000000
                                        }
                                    }
                                }
                            }
                            JOINT LeftFinger3
                            {
                                OFFSET   7.899780   0.000017  -1.078090
                                CHANNELS 3 Zrotation Xrotation Yrotation
                                JOINT LeftFinger31
                                {
                                    OFFSET   4.646930   0.000000   0.000000
                                    CHANNELS 3 Zrotation Xrotation Yrotation
                                    JOINT LeftFinger32
                                    {
                                        OFFSET   2.323470   0.000000   0.000000
                                        CHANNELS 3 Zrotation Xrotation Yrotation
                                        End Site
                                        {
                                            OFFSET   2.273050   0.000000   0.000000
                                        }
                                    }
                                }
                            }
                            JOINT LeftFinger4
                            {
                                OFFSET   7.435090   0.000000  -3.252850
                                CHANNELS 3 Zrotation Xrotation Yrotation
                                JOINT LeftFinger41
                                {
                                    OFFSET   3.717550   0.000000   0.000000
                                    CHANNELS 3 Zrotation Xrotation Yrotation
                                    JOINT LeftFinger42
                                    {
                                        OFFSET   1.858770   0.000000   0.000000
                                        CHANNELS 3 Zrotation Xrotation Yrotation
                                        End Site
                                        {
                                            OFFSET   1.818440   0.000000   0.000000
                                        }
                                    }
                                }
                            }
                        }
                    }
                }
            }
            JOINT RightCollar
            {
                OFFSET  -3.911900  19.017000  -0.467063
                CHANNELS 3 Zrotation Xrotation Yrotation
                JOINT RightShoulder
                {
                    OFFSET -10.383700   0.000019   0.000000
                    CHANNELS 3 Zrotation Xrotation Yrotation
                    JOINT RightElbow
                    {
                        OFFSET -26.662100   0.001175   0.000102
                        CHANNELS 3 Zrotation Xrotation Yrotation
                        JOINT RightWrist
                        {
                            OFFSET -28.869000   0.000016  -0.000079
                            CHANNELS 3 Zrotation Xrotation Yrotation
                            JOINT RightFinger0
                            {
                                OFFSET  -2.044660  -2.323490   3.252850
                                CHANNELS 3 Zrotation Xrotation Yrotation
                                JOINT RightFinger01
                                {
                                    OFFSET  -3.088140   0.000000   0.000000
                                    CHANNELS 3 Zrotation Xrotation Yrotation
                                    JOINT RightFinger02
                                    {
                                        OFFSET  -2.639460   0.000000   0.000000
                                        CHANNELS 3 Zrotation Xrotation Yrotation
                                        End Site
                                        {
                                            OFFSET  -2.582190   0.000000   0.000000
                                        }
                                    }
                                }
                            }
                            JOINT RightFinger1
                            {
                                OFFSET  -8.364480   0.000000   3.252850
                                CHANNELS 3 Zrotation Xrotation Yrotation
                                JOINT RightFinger11
                                {
                                    OFFSET  -4.646930   0.000000   0.000000
                                    CHANNELS 3 Zrotation Xrotation Yrotation
                                    JOINT RightFinger12
                                    {
                                        OFFSET  -2.323470   0.000000   0.000000
                                        CHANNELS 3 Zrotation Xrotation Yrotation
                                        End Site
                                        {
                                            OFFSET  -2.273050   0.000000   0.000000
                                        }
                                    }
                                }
                            }
                            JOINT RightFinger2
                            {
                                OFFSET  -8.364480   0.000000   1.078090
                                CHANNELS 3 Zrotation Xrotation Yrotation
                                JOINT RightFinger21
                                {
                                    OFFSET  -5.111620   0.000000   0.000000
                                    CHANNELS 3 Zrotation Xrotation Yrotation
                                    JOINT RightFinger22
                                    {
                                        OFFSET  -2.788160   0.000000   0.000000
                                        CHANNELS 3 Zrotation Xrotation Yrotation
                                        End Site
                                        {
                                            OFFSET  -2.727660   0.000000   0.000000
                                        }
                                    }
                                }
                            }
                            JOINT RightFinger3
                            {
                                OFFSET  -7.899780   0.000000  -1.078090
                                CHANNELS 3 Zrotation Xrotation Yrotation
                                JOINT RightFinger31
                                {
                                    OFFSET  -4.646930   0.000000   0.000000
                                    CHANNELS 3 Zrotation Xrotation Yrotation
                                    JOINT RightFinger32
                                    {
                                        OFFSET  -2.323470   0.000000   0.000000
                                        CHANNELS 3 Zrotation Xrotation Yrotation
                                        End Site
                                        {
                                            OFFSET  -2.273050   0.000000   0.000000
                                        }
                                    }
                                }
                            }
                            JOINT RightFinger4
                            {
                                OFFSET  -7.435090   0.000000  -3.252850
                                CHANNELS 3 Zrotation Xrotation Yrotation
                                JOINT RightFinger41
                                {
                                    OFFSET  -3.717550   0.000000   0.000000
                                    CHANNELS 3 Zrotation Xrotation Yrotation
                                    JOINT RightFinger42
                                    {
                                        OFFSET  -1.858770   0.000000   0.000000
                                        CHANNELS 3 Zrotation Xrotation Yrotation
                                        End Site
                                        {
                                            OFFSET  -1.818440   0.000000   0.000000
                                        }
                                    }
                                }
                            }
                        }
                    }
                }
            }
        }
    }
    JOINT LeftHip
    {
        OFFSET   9.783040   0.000000   0.000000
        CHANNELS 3 Zrotation Xrotation Yrotation
        JOINT LeftKnee
        {
            OFFSET   0.000032 -41.789100  -0.002222
            CHANNELS 3 Zrotation Xrotation Yrotation
            JOINT LeftAnkle
            {
                OFFSET   0.000087 -41.133200  -0.000135
                CHANNELS 3 Zrotation Xrotation Yrotation
                JOINT LeftToe
                {
                    OFFSET   0.000000  -6.358960  14.674500
                    CHANNELS 3 Zrotation Xrotation Yrotation
                    End Site
                    {
                        OFFSET   0.000000   0.000000   3.913200
                    }
                }
            }
        }
    }
    JOINT RightHip
    {
        OFFSET  -9.783040   0.000000   0.000000
        CHANNELS 3 Zrotation Xrotation Yrotation
        JOINT RightKnee
        {
            OFFSET   0.000047 -41.789100  -0.000896
            CHANNELS 3 Zrotation Xrotation Yrotation
            JOINT RightAnkle
            {
                OFFSET  -0.000117 -41.133300  -0.000248
                CHANNELS 3 Zrotation Xrotation Yrotation
                JOINT RightToe
                {
                    OFFSET   0.000000  -6.358970  14.674500
                    CHANNELS 3 Zrotation Xrotation Yrotation
                    End Site
                    {
                        OFFSET   0.000000   0.000000   3.913200
                    }
                }
            }
        }
    }
}
MOTION
Frames: 6
Frame Time:   0.016667
 -0.594564  89.595200   0.252685  -2.288460  -5.066020   0.662935   0.841351   2.681580  -0.496702   1.708780   5.355470  -1.034520   0.301239   1.648720   0.000000   0.493295   3.343400   0.959158  -5.212770   1.316460   0.216006 -72.923200   9.924130   0.659319  -0.280071  -4.567560 -12.331900  11.841300  -9.122250  -7.870170  58.035300  53.890900 -107.060000  -8.862730  -0.003077   0.002102   0.568653  -0.001710   0.009436 -22.364200   2.955040  -7.138690 -18.448800  -0.002879  -0.001028 -12.914200  -0.008256  -0.002789 -27.633300   2.464200  -4.694860 -30.415700   0.001279   0.006630 -20.256900   0.000898  -0.009714 -23.049400  -0.338703   0.764608 -23.051800  -0.001987   0.008612 -15.352500  -0.008056  -0.001202 -25.317900  -2.880470   6.061520 -38.206100  -0.000915  -0.000498 -25.445200  -0.002554  -0.007796  10.071700   0.660354   3.031240  69.806000   2.988680  -6.719960   0.305276 -10.468700   7.016850 -11.160300  -7.659500   3.782570 -43.676800  42.280800  86.248000   0.548972  -0.006608  -0.000935  -4.725510  -0.004446   0.002343  15.763700   3.499800  12.202500  13.203700  -0.005088  -0.002803   9.242610   0.007533   0.001873  19.344800   2.706150   7.658810  19.525800  -0.003644   0.000286  13.004200  -0.009616   0.000131  18.050700   1.786500   5.464370  18.136000  -0.001121  -0.000135  12.078500  -0.000742  -0.004915  21.999600   2.159050   5.339550  33.150100  -0.001391  -0.002369  22.078000  -0.001063   0.000697   3.035490   6.860210  -1.923950   0.842717  -0.001319  11.580600  -1.407200  -2.345700   0.736002  -0.000000   0.000000  -0.000000   1.779740   6.303620  -2.777880   0.320319   0.421586 -16.361300   0.423220  -2.278990   2.926850   0.000000   0.000000   0.000000
 -0.594476  89.595200   0.244737  -2.287580  -5.084450   0.670465   0.841441   2.691680  -0.496553   1.709070   5.375670  -1.034290   0.301917   1.644640   0.000000   0.494100   3.335050   0.955305  -5.212900   1.316420   0.216010 -72.911700   9.933900   0.659343  -0.282880  -4.579640 -12.332500  11.850600  -9.134580  -7.865790  58.046300  53.894600 -107.070000  -8.872100  -0.003076   0.002096   0.563960  -0.001703   0.009436 -22.379200   2.955080  -7.132610 -18.461100  -0.002877  -0.001029 -12.922800  -0.008245  -0.002786 -27.629500   2.424040  -4.619470 -30.377100   0.001284   0.006640 -20.231200   0.000897  -0.009717 -23.053600  -0.338700   0.770694 -23.055900  -0.001980   0.008612 -15.355300  -0.008051  -0.001200 -25.318000  -2.880590   6.061530 -38.206300  -0.000907  -0.000500 -25.445400  -0.002542  -0.007793  10.078000   0.657259   3.037810  69.798800   3.009450  -6.723200   0.304020 -10.477300   7.034870 -11.199400  -7.676290   3.785170 -43.663300  42.285400  86.256200   0.570376  -0.006606  -0.000935  -4.714810  -0.004443   0.002340  15.788300   3.512450  12.227600  13.225900  -0.005092  -0.002800   9.258180   0.007538   0.001873  19.373500   2.737050   7.730360  19.558600  -0.003639   0.000286  13.026100  -0.009615   0.000132  18.081400   1.793170   5.474720  18.167100  -0.001119  -0.000132  12.099300  -0.000736  -0.004910  22.053400   2.159290   5.331850  33.230500  -0.001378  -0.002357  22.131600  -0.001055   0.000689   3.034620   6.840680  -1.923970   0.840201   0.071806  11.575700  -1.413270  -2.375260   0.735679  -0.000000   0.000000  -0.000000   1.786570   6.337240  -2.778130   0.316859   0.382384 -16.362200   0.415120  -2.256430   2.921550  -0.000000   0.000000  -0.000000
 -0.594341  89.595200   0.232697  -2.286330  -5.116670   0.680240   0.841572   2.708920  -0.495489   1.709460   5.410160  -1.032540   0.303836   1.635940  -0.000000   0.496289   3.317380   0.947852  -5.213120   1.316380   0.216013 -72.892700   9.943670   0.659367  -0.286834  -4.596930 -12.333200  11.866300  -9.153110  -7.855560  58.057200  53.898200 -107.080000  -8.912500  -0.003073   0.002086   0.543754  -0.001686   0.009436 -22.408300   2.955120  -7.126530 -18.484700  -0.002865  -0.001031 -12.939300  -0.008222  -0.002780 -27.625600   2.383860  -4.544090 -30.338500   0.001300   0.006663 -20.205500   0.000896  -0.009722 -23.063100  -0.338678   0.780566 -23.065400  -0.001963   0.008615 -15.361600  -0.008035  -0.001193 -25.319400  -2.880860   6.061530 -38.208100  -0.000887  -0.000503 -25.446500  -0.002513  -0.007784  10.092400   0.645780   3.050720  69.780900   3.030200  -6.729490   0.302438 -10.496100   7.059990 -11.264900  -7.700880   3.791610 -43.660900  42.295900  86.271400   0.602747  -0.006600  -0.000929  -4.698640  -0.004435   0.002336  15.814200   3.530520  12.266100  13.249300  -0.005105  -0.002792   9.274510   0.007547   0.001869  19.415100   2.767940   7.801910  19.603800  -0.003624   0.000286  13.056200  -0.009609   0.000135  18.131700   1.803750   5.490540  18.218200  -0.001110  -0.000123  12.133300  -0.000723  -0.004899  22.139500   2.159570   5.314210  33.358900  -0.001344  -0.002324  22.217100  -0.001034   0.000671   3.033670   6.821140  -1.924100   0.837704   0.144935  11.567900  -1.419340  -2.404820   0.735356  -0.000000   0.000000  -0.000000   1.797870   6.389590  -2.778480   0.312785   0.332420 -16.366200   0.404035  -2.230150   2.916230   0.000000   0.000000   0.000000
 -0.594267  89.595200   0.224377  -2.289770  -5.145530   0.682872   0.841655   2.723910  -0.492766   1.709650   5.440160  -1.027420   0.307548   1.624820  -0.000000   0.500470   3.295050   0.938834  -5.213220   1.319640   0.210332 -72.876000   9.940000   0.655656  -0.287999  -4.603600 -12.331000  11.882700  -9.162710  -7.841470  58.046000  53.893100 -107.066000  -8.983490  -0.003060   0.002081   0.508255  -0.001664   0.009437 -22.439300   2.960540  -7.131080 -18.510400  -0.002833  -0.001034 -12.957300  -0.008196  -0.002775 -27.629400   2.395970  -4.566320 -30.364500   0.001329   0.006695 -20.222800   0.000911  -0.009732 -23.077400  -0.338582   0.789620 -23.079700  -0.001941   0.008622 -15.371100  -0.008008  -0.001182 -25.331100  -2.881250   6.058380 -38.225400  -0.000859  -0.000505 -25.458000  -0.002473  -0.007769  10.113600   0.620773   3.066430  69.753800   3.020970  -6.738550   0.303229 -10.520900   7.070160 -11.316800  -7.709920   3.801940 -43.706300  42.313600  86.289600   0.613159  -0.006591  -0.000908  -4.693430  -0.004421   0.002355  15.813000   3.537950  12.294300  13.250100  -0.005125  -0.002782   9.275030   0.007558   0.001859  19.426100   2.763380   7.787130  19.613900  -0.003599   0.000290  13.062900  -0.009594   0.000142  18.167400   1.810950   5.501100  18.254400  -0.001091  -0.000108  12.157400  -0.000708  -0.004882  22.196700   2.159600   5.289870  33.444300  -0.001292  -0.002268  22.274000  -0.000999   0.000643   3.034810   6.859320  -1.924380   0.838498   0.105301  11.561800  -1.414940  -2.382320   0.735664  -0.000000   0.000000   0.000000   1.807250   6.430930  -2.777980   0.312099   0.319857 -16.374900   0.399484  -2.225800   2.919670  -0.000000   0.000000  -0.000000
 -0.594201  89.595200   0.219954  -2.296040  -5.176350   0.683277   0.841644   2.738710  -0.488599   1.709590   5.469830  -1.019220   0.311172   1.611780   0.000000   0.504363   3.268800   0.930347  -5.213200   1.328170   0.202234 -72.860400   9.927010   0.646487  -0.288047  -4.609400 -12.324500  11.893400  -9.171770  -7.823420  57.967800  53.857400 -106.969000  -9.110910  -0.003043   0.002076   0.444548  -0.001636   0.009437 -22.474000   2.972380  -7.144660 -18.539700  -0.002793  -0.001039 -12.977800  -0.008161  -0.002769 -27.635600   2.415680  -4.602500 -30.406900   0.001363   0.006736 -20.251000   0.000938  -0.009744 -23.092600  -0.338505   0.794889 -23.094900  -0.001911   0.008631 -15.381200  -0.007971  -0.001166 -25.352300  -2.881670   6.049480 -38.257300  -0.000822  -0.000507 -25.479300  -0.002421  -0.007748  10.136400   0.593275   3.082030  69.721800   3.004660  -6.744520   0.302625 -10.549200   7.073560 -11.371800  -7.721860   3.813370 -43.746200  42.327500  86.304400   0.636711  -0.006580  -0.000883  -4.681650  -0.004402   0.002388  15.813200   3.543130  12.309200  13.250800  -0.005150  -0.002768   9.275550   0.007569   0.001844  19.438100   2.755660   7.757680  19.625000  -0.003567   0.000296  13.070300  -0.009574   0.000152  18.208400   1.817760   5.508140  18.295800  -0.001066  -0.000083  12.185000  -0.000691  -0.004865  22.257000   2.159330   5.260050  33.534400  -0.001226  -0.002197  22.333900  -0.000953   0.000608   3.036820   6.918910  -1.925070   0.838880   0.055472  11.558000  -1.408790  -2.353520   0.737885   0.000000   0.000000   0.000000   1.815050   6.453540  -2.774920   0.312052   0.318047 -16.385500   0.398003  -2.225160   2.925160  -0.000000   0.000000   0.000000
 -0.594112  89.595100   0.219728  -2.301070  -5.208650   0.681462   0.841426   2.751430  -0.482627   1.709010   5.495350  -1.007450   0.312700   1.599450  -0.000044   0.505886   3.243580   0.925285  -5.213060   1.342260   0.198253 -72.848800   9.904490   0.634752  -0.286334  -4.616530 -12.313300  11.895400  -9.180540  -7.802310  57.736500  53.751200 -106.682000  -9.340620  -0.003027   0.002066   0.329688  -0.001604   0.009434 -22.511800   2.989440  -7.171910 -18.572000  -0.002754  -0.001044 -13.000400  -0.008115  -0.002758 -27.639700   2.433960  -4.636020 -30.437700   0.001392   0.006786 -20.271500   0.000965  -0.009754 -23.101600  -0.338572   0.794618 -23.103900  -0.001873   0.008641 -15.387200  -0.007929  -0.001144 -25.378400  -2.882050   6.029610 -38.295900  -0.000774  -0.000510 -25.505000  -0.002356  -0.007721  10.157500   0.575039   3.091470  69.689800   2.987670  -6.737780   0.296730 -10.577900   7.065510 -11.440000  -7.750330   3.822020 -43.749300  42.329800  86.308600   0.699460  -0.006570  -0.000869  -4.650270  -0.004381   0.002415  15.836000   3.548040  12.304000  13.269100  -0.005178  -0.002746   9.288360   0.007582   0.001827  19.472400   2.747600   7.713730  19.658000  -0.003530   0.000299  13.092300  -0.009552   0.000165  18.264300   1.824220   5.509460  18.352100  -0.001035  -0.000034  12.222500  -0.000673  -0.004858  22.333500   2.155290   5.227710  33.648100  -0.001151  -0.002114  22.409600  -0.000900   0.000564   3.039840   6.954820  -1.929050   0.838599   0.048628  11.557400  -1.406970  -2.348450   0.745043   0.000000   0.000000   0.000000   1.819730   6.450940  -2.767650   0.313549   0.397068 -16.395800   0.408556  -2.268500   2.928360   0.000000   0.000000  -0.000000
